<svg width="512" height="512" viewBox="0 0 512 512" xmlns="http://www.w3.org/2000/svg">
  <!-- Background with gradient -->
  <defs>
    <linearGradient id="bgGradient" x1="0%" y1="0%" x2="100%" y2="100%">
      <stop offset="0%" style="stop-color:#2563eb;stop-opacity:1" />
      <stop offset="100%" style="stop-color:#1d4ed8;stop-opacity:1" />
    </linearGradient>
    <linearGradient id="iconGradient" x1="0%" y1="0%" x2="100%" y2="100%">
      <stop offset="0%" style="stop-color:#ffffff;stop-opacity:1" />
      <stop offset="100%" style="stop-color:#f1f5f9;stop-opacity:1" />
    </linearGradient>
  </defs>
  
  <!-- Background circle -->
  <circle cx="256" cy="256" r="240" fill="url(#bgGradient)" stroke="#1e40af" stroke-width="4"/>
  
  <!-- Shopping cart icon -->
  <g fill="url(#iconGradient)" stroke="none">
    <!-- Cart body -->
    <path d="M160 360c-26.51 0-48 21.49-48 48s21.49 48 48 48 48-21.49 48-48-21.49-48-48-48zm192 0c-26.51 0-48 21.49-48 48s21.49 48 48 48 48-21.49 48-48-21.49-48-48-48z"/>
    <path d="M400 200H144l-16-64h-32c-8.837 0-16-7.163-16-16s7.163-16 16-16h48c6.4 0 12.1 3.8 14.6 9.6l17.4 70.4h208c8.837 0 16 7.163 16 16 0 4.3-1.7 8.2-4.5 11.1L364.1 244c-5.9 5.9-15.4 5.9-21.3 0s-5.9-15.4 0-21.3l22.6-22.7H168.4l24 96h167.6c8.837 0 16 7.163 16 16s-7.163 16-16 16H176c-6.4 0-12.1-3.8-14.6-9.6L136.4 232H400c8.837 0 16 7.163 16 16s-7.163 16-16 16z"/>
  </g>
  
  <!-- Sales chart icon overlay -->
  <g fill="url(#iconGradient)" opacity="0.8">
    <rect x="320" y="140" width="16" height="60" rx="2"/>
    <rect x="344" y="120" width="16" height="80" rx="2"/>
    <rect x="368" y="100" width="16" height="100" rx="2"/>
    <rect x="392" y="80" width="16" height="120" rx="2"/>
  </g>
  
  <!-- Letter S for Sales -->
  <text x="256" y="180" font-family="Arial, sans-serif" font-size="120" font-weight="bold" text-anchor="middle" fill="url(#iconGradient)">S</text>
</svg>